<svg width="24" height="24" viewBox="0 0 24 24" fill="none" xmlns="http://www.w3.org/2000/svg">
<path d="M5.23832 14.4631L4.41557 17.5346L1.40844 17.5982C0.509752 15.9313 0 14.0242 0 11.9976C0 10.0378 0.476605 8.18976 1.32142 6.5625H1.32207L3.99925 7.05332L5.17202 9.71445C4.92657 10.43 4.79278 11.1982 4.79278 11.9976C4.79287 12.8651 4.95002 13.6963 5.23832 14.4631Z" fill="#FBBB00"/>
<path d="M23.43 9.78906C23.5657 10.504 23.6365 11.2423 23.6365 11.9968C23.6365 12.843 23.5475 13.6683 23.3781 14.4644C22.8028 17.1735 21.2995 19.5391 19.217 21.2131L19.2164 21.2124L15.8443 21.0404L15.3671 18.0611C16.7489 17.2508 17.8288 15.9826 18.3976 14.4644H12.0781V9.78906H18.4898H23.43Z" fill="#518EF8"/>
<path d="M19.216 21.2109L19.2166 21.2116C17.1913 22.8395 14.6186 23.8135 11.8179 23.8135C7.31729 23.8135 3.40432 21.2979 1.4082 17.596L5.23808 14.4609C6.23611 17.1246 8.8056 19.0207 11.8179 19.0207C13.1127 19.0207 14.3258 18.6707 15.3666 18.0596L19.216 21.2109Z" fill="#28B446"/>
<path d="M19.3625 2.90045L15.534 6.03486C14.4567 5.3615 13.1833 4.97251 11.819 4.97251C8.7385 4.97251 6.12096 6.95562 5.17292 9.71474L1.32291 6.5628H1.32227C3.28916 2.77059 7.25149 0.179688 11.819 0.179688C14.6866 0.179688 17.3158 1.20113 19.3625 2.90045Z" fill="#F14336"/>
</svg>
